<svg xmlns="http://www.w3.org/2000/svg" xmlns:xlink="http://www.w3.org/1999/xlink" viewBox="0 0 1084 1922"><defs><style>.cls-1{fill:url(#linear-gradient);}.cls-2{fill:#fff;stroke:url(#linear-gradient-2);}.cls-2,.cls-29,.cls-30,.cls-33,.cls-34,.cls-35,.cls-4,.cls-7,.cls-8,.cls-9{stroke-miterlimit:10;}.cls-3{fill:url(#linear-gradient-3);}.cls-4{stroke:#070707;fill:url(#linear-gradient-4);}.cls-5{fill:url(#linear-gradient-5);}.cls-6{fill:url(#linear-gradient-6);}.cls-7,.cls-8,.cls-9{fill:#1c1c1c;}.cls-7{stroke:url(#linear-gradient-7);}.cls-8{stroke:url(#linear-gradient-8);}.cls-9{stroke:url(#linear-gradient-9);}.cls-10{fill:url(#linear-gradient-10);}.cls-11{fill:url(#linear-gradient-11);}.cls-12{fill:url(#linear-gradient-12);}.cls-13{fill:url(#linear-gradient-13);}.cls-14{fill:url(#linear-gradient-14);}.cls-15{fill:url(#linear-gradient-15);}.cls-16{fill:url(#linear-gradient-16);}.cls-17{fill:url(#linear-gradient-17);}.cls-18{fill:url(#linear-gradient-18);}.cls-19{fill:url(#linear-gradient-19);}.cls-20{fill:url(#linear-gradient-20);}.cls-21{fill:url(#linear-gradient-21);}.cls-22{fill:url(#linear-gradient-22);}.cls-23{fill:url(#linear-gradient-23);}.cls-24{fill:url(#linear-gradient-24);}.cls-25{fill:url(#linear-gradient-25);}.cls-26{fill:url(#linear-gradient-26);}.cls-27{fill:url(#linear-gradient-27);}.cls-28{fill:url(#linear-gradient-28);}.cls-29{fill:#0a0a0a;}.cls-29,.cls-33{stroke:#000;}.cls-30,.cls-31{fill:#727272;}.cls-30{stroke:#0a0a0a;}.cls-32{opacity:0.4;}.cls-33{fill:none;}.cls-34,.cls-35{stroke:#fff;}.cls-35{fill:#282828;}</style><linearGradient id="linear-gradient" x1="538.73" y1="1839.55" x2="540.73" y2="849.29" gradientUnits="userSpaceOnUse"><stop offset="0" stop-color="#505050"/><stop offset="1"/></linearGradient><linearGradient id="linear-gradient-2" x1="517.98" y1="824.78" x2="541.98" y2="824.78" gradientTransform="matrix(1, 0.01, -0.01, 1, 24.05, -5.49)" gradientUnits="userSpaceOnUse"><stop offset="0" stop-color="#fff"/><stop offset="1"/></linearGradient><linearGradient id="linear-gradient-3" x1="538.95" y1="1667.45" x2="542.95" y2="1979.45" gradientUnits="userSpaceOnUse"><stop offset="0"/><stop offset="1" stop-color="#2a2a2a"/></linearGradient><linearGradient id="linear-gradient-4" x1="540.23" y1="1718.43" x2="543.65" y2="1866.03" gradientUnits="userSpaceOnUse"><stop offset="0" stop-color="#363636"/><stop offset="1" stop-color="#020202"/></linearGradient><linearGradient id="linear-gradient-5" x1="94.94" y1="1794.85" x2="113.93" y2="1794.85" gradientUnits="userSpaceOnUse"><stop offset="0" stop-color="#363636"/><stop offset="0.51" stop-color="#020202"/></linearGradient><linearGradient id="linear-gradient-6" x1="146.89" y1="1794.85" x2="165.87" y2="1794.85" xlink:href="#linear-gradient-5"/><linearGradient id="linear-gradient-7" x1="229.81" y1="1868.95" x2="229.81" y2="1868.95" gradientTransform="matrix(1, 0, 0, 1, 0, 0)" xlink:href="#linear-gradient-2"/><linearGradient id="linear-gradient-8" x1="229.81" y1="1716.74" x2="229.81" y2="1716.74" gradientTransform="matrix(1, 0, 0, 1, 0, 0)" xlink:href="#linear-gradient-2"/><linearGradient id="linear-gradient-9" x1="472.57" y1="1715.07" x2="472.57" y2="1715.07" gradientTransform="matrix(1, 0, 0, 1, 0, 0)" xlink:href="#linear-gradient-2"/><linearGradient id="linear-gradient-10" x1="193.85" y1="1794.85" x2="212.83" y2="1794.85" xlink:href="#linear-gradient-5"/><linearGradient id="linear-gradient-11" x1="238.8" y1="1794.85" x2="257.78" y2="1794.85" xlink:href="#linear-gradient-5"/><linearGradient id="linear-gradient-12" x1="290.75" y1="1794.85" x2="309.73" y2="1794.85" xlink:href="#linear-gradient-5"/><linearGradient id="linear-gradient-13" x1="341.7" y1="1794.85" x2="360.68" y2="1794.85" xlink:href="#linear-gradient-5"/><linearGradient id="linear-gradient-14" x1="386.65" y1="1794.85" x2="405.64" y2="1794.85" xlink:href="#linear-gradient-5"/><linearGradient id="linear-gradient-15" x1="438.6" y1="1794.85" x2="457.58" y2="1794.85" xlink:href="#linear-gradient-5"/><linearGradient id="linear-gradient-16" x1="485.56" y1="1794.85" x2="504.54" y2="1794.85" xlink:href="#linear-gradient-5"/><linearGradient id="linear-gradient-17" x1="530.51" y1="1794.85" x2="549.49" y2="1794.85" xlink:href="#linear-gradient-5"/><linearGradient id="linear-gradient-18" x1="582.46" y1="1794.85" x2="601.44" y2="1794.85" xlink:href="#linear-gradient-5"/><linearGradient id="linear-gradient-19" x1="633.41" y1="1794.85" x2="652.39" y2="1794.85" xlink:href="#linear-gradient-5"/><linearGradient id="linear-gradient-20" x1="678.36" y1="1794.85" x2="697.35" y2="1794.85" xlink:href="#linear-gradient-5"/><linearGradient id="linear-gradient-21" x1="730.31" y1="1794.85" x2="749.29" y2="1794.85" xlink:href="#linear-gradient-5"/><linearGradient id="linear-gradient-22" x1="777.27" y1="1794.85" x2="796.25" y2="1794.85" xlink:href="#linear-gradient-5"/><linearGradient id="linear-gradient-23" x1="874.17" y1="1794.85" x2="893.15" y2="1794.85" xlink:href="#linear-gradient-5"/><linearGradient id="linear-gradient-24" x1="919.13" y1="1794.85" x2="938.11" y2="1794.85" xlink:href="#linear-gradient-5"/><linearGradient id="linear-gradient-25" x1="964.08" y1="1794.85" x2="983.06" y2="1794.85" xlink:href="#linear-gradient-5"/><linearGradient id="linear-gradient-26" x1="1016.03" y1="1794.85" x2="1035.01" y2="1794.85" xlink:href="#linear-gradient-5"/><linearGradient id="linear-gradient-27" x1="826.22" y1="1794.85" x2="845.2" y2="1794.85" xlink:href="#linear-gradient-5"/><linearGradient id="linear-gradient-28" x1="48.99" y1="1794.85" x2="67.97" y2="1794.85" xlink:href="#linear-gradient-5"/></defs><title>App Images2</title><g id="Background"><rect class="cls-1" y="1.5" width="1081" height="1920.5"/><line class="cls-2" x1="542.5" x2="542.5" y2="1653"/><rect class="cls-3" x="0.5" y="1654.5" width="1080" height="267"/><g id="Layer_20" data-name="Layer 20"><rect class="cls-4" x="39" y="1712.89" width="1006" height="163.91" rx="12" ry="12"/></g><rect class="cls-5" x="94.94" y="1718.74" width="18.98" height="152.2"/><rect class="cls-6" x="146.89" y="1718.74" width="18.98" height="152.2"/><path class="cls-7" d="M229.81,1868.95" transform="translate(1 2)"/><path class="cls-8" d="M229.81,1716.74" transform="translate(1 2)"/><path class="cls-9" d="M472.57,1715.07" transform="translate(1 2)"/><rect class="cls-10" x="193.85" y="1718.74" width="18.98" height="152.2"/><rect class="cls-11" x="238.8" y="1718.74" width="18.98" height="152.2"/><rect class="cls-12" x="290.75" y="1718.74" width="18.98" height="152.2"/><rect class="cls-13" x="341.7" y="1718.74" width="18.98" height="152.2"/><rect class="cls-14" x="386.65" y="1718.74" width="18.98" height="152.2"/><rect class="cls-15" x="438.6" y="1718.74" width="18.98" height="152.2"/><rect class="cls-16" x="485.56" y="1718.74" width="18.98" height="152.2"/><rect class="cls-17" x="530.51" y="1718.74" width="18.98" height="152.2"/><rect class="cls-18" x="582.46" y="1718.74" width="18.98" height="152.2"/><rect class="cls-19" x="633.41" y="1718.74" width="18.98" height="152.2"/><rect class="cls-20" x="678.36" y="1718.74" width="18.98" height="152.2"/><rect class="cls-21" x="730.31" y="1718.74" width="18.98" height="152.2"/><rect class="cls-22" x="777.27" y="1718.74" width="18.98" height="152.2"/><rect class="cls-23" x="874.17" y="1718.74" width="18.98" height="152.2"/><rect class="cls-24" x="919.13" y="1718.74" width="18.98" height="152.2"/><rect class="cls-25" x="964.08" y="1718.74" width="18.98" height="152.2"/><rect class="cls-26" x="1016.03" y="1718.74" width="18.98" height="152.2"/><rect class="cls-27" x="826.22" y="1718.74" width="18.98" height="152.2"/><rect class="cls-28" x="48.99" y="1718.74" width="18.98" height="152.2"/><g id="Top_Menu" data-name="Top Menu"><rect class="cls-29" x="182.5" y="80.3" width="721" height="224.7" rx="107.5" ry="107.5"/><rect class="cls-29" x="3.5" y="5.5" width="1080" height="201.71"/><rect class="cls-30" x="179.5" y="63.5" width="721" height="215" rx="107.5" ry="107.5"/><rect class="cls-31" x="0.5" y="1.5" width="1080" height="193"/></g><image class="cls-32" width="271" height="283" transform="translate(413 2) scale(0.97 0.93)" xlink:href="../Picture1.png"/></g><g id="Slider_1" data-name="Slider #1"><rect class="cls-33" x="92.5" y="1043" width="320" height="56" rx="12" ry="12"/><rect class="cls-34" x="224.5" y="1010.5" width="52" height="126" rx="12" ry="12"/><rect class="cls-35" x="233.5" y="1010.5" width="34" height="126" rx="12" ry="12"/><rect class="cls-33" x="693.5" y="1046" width="320" height="56" rx="12" ry="12"/><rect class="cls-34" x="825.5" y="1013.5" width="52" height="126" rx="12" ry="12"/><rect class="cls-35" x="834.5" y="1013.5" width="34" height="126" rx="12" ry="12"/><rect class="cls-33" x="92.5" y="1216" width="320" height="56" rx="12" ry="12"/><rect class="cls-34" x="224.5" y="1183.5" width="52" height="126" rx="12" ry="12"/><rect class="cls-35" x="233.5" y="1183.5" width="34" height="126" rx="12" ry="12"/><rect class="cls-33" x="693.5" y="1219" width="320" height="56" rx="12" ry="12"/><rect class="cls-34" x="825.5" y="1186.5" width="52" height="126" rx="12" ry="12"/><rect class="cls-35" x="834.5" y="1186.5" width="34" height="126" rx="12" ry="12"/><rect class="cls-33" x="92.5" y="1395" width="320" height="56" rx="12" ry="12"/><rect class="cls-34" x="224.5" y="1362.5" width="52" height="126" rx="12" ry="12"/><rect class="cls-35" x="233.5" y="1362.5" width="34" height="126" rx="12" ry="12"/><rect class="cls-33" x="693.5" y="1398" width="320" height="56" rx="12" ry="12"/><rect class="cls-34" x="825.5" y="1365.5" width="52" height="126" rx="12" ry="12"/><rect class="cls-35" x="834.5" y="1365.5" width="34" height="126" rx="12" ry="12"/></g></svg>